<?xml version="1.0" encoding="utf-8"?>
<!-- Generator: Adobe Illustrator 22.1.0, SVG Export Plug-In . SVG Version: 6.00 Build 0)  -->
<svg version="1.1" id="圖層_1" xmlns="http://www.w3.org/2000/svg" xmlns:xlink="http://www.w3.org/1999/xlink" x="0px" y="0px"
	 viewBox="0 0 24 24" style="enable-background:new 0 0 24 24;" xml:space="preserve">
<style type="text/css">
	.st0{fill:none;stroke:#3E3A39;stroke-width:1.5;stroke-miterlimit:10;}
</style>
<title>ic_heart</title>
<desc>Created with Sketch.</desc>
<g>
	<path class="st0" d="M2.7,16.9C2.7,17,2.7,17,2.7,17l-1.2,5c-0.1,0.3,0.2,0.7,0.5,0.5l5-1.2c0.1,0,0.1-0.1,0.1-0.1
		c0.1-0.1,0.1-0.1,0.2-0.1L19.5,9c0.2-0.2,0.2-0.6,0-0.9l-3.6-3.6c-0.2-0.2-0.6-0.2-0.9,0L2.9,16.7C2.8,16.7,2.7,16.8,2.7,16.9z"/>
	<path class="st0" d="M20.1,2L22,3.9c0.7,0.7,0.7,1.9,0,2.7l0,0c-0.2,0.2-0.4,0.2-0.6,0l-4-4c-0.2-0.2-0.2-0.4,0-0.6l0,0
		C18.1,1.2,19.3,1.2,20.1,2z"/>
	<line class="st0" x1="2.9" y1="16.7" x2="7.3" y2="21.1"/>
</g>
</svg>
